# xmcd
#
# Track frame offsets:
# 150
# 20180
# 39139
# 55971
# 73060
# 103976
# 126955
# 144250
# 165196
# 188049
# 202185
# 223097
# 238447
# 255686
# 283119
#
# Disc length: 4000 seconds
#
#
# Revision: 0
# Processed by: cddbd v1.5.1PL2 Copyright (c) Steve Scherf et al.
# Submitted via: FreeRIP 2.53 
#
DISCID=ec0f9e0f
DTITLE=The Hellhounds - Live At The Grand Junction
DYEAR=2006
DGENRE=Blues
TTITLE0=Gettin' Out
TTITLE1=Stop Breaking Down
TTITLE2=Hoochie Coochie Man
TTITLE3=Blues Boy Trucker
TTITLE4=Redhouse
TTITLE5=Cadillac Walk
TTITLE6=Boom Boom
TTITLE7=Going Out West
TTITLE8=Keep Your Hands To Yourself
TTITLE9=Crossroads
TTITLE10=I Just Want To Make Love To You
TTITLE11=Little Sister
TTITLE12=Roadhouse Blues
TTITLE13=One's Too Many
TTITLE14=Walking By Myself
EXTD=
EXTT0=
EXTT1=
EXTT2=
EXTT3=
EXTT4=
EXTT5=
EXTT6=
EXTT7=
EXTT8=
EXTT9=
EXTT10=
EXTT11=
EXTT12=
EXTT13=
EXTT14=
PLAYORDER=
